# xmcd
#
# Track frame offsets:
#	150
#	14672
#	24675
#	33005
#	37807
#	44525
#	57040
#	67752
#	80070
#	97472
#	109340
#	124480
#	148502
#	176057
#	192120
#	207540
#	225327
#	245800
#	256462
#
# Disc length: 3785 seconds
# Revision: 2
# Processed by: cddbd v1.5.2PL0 Copyright (c) Steve Scherf et al.
# Submitted via: dBpowerAMP V12.0
#
DISCID=150ec713
DTITLE=Glen Campbell - In Concert
DYEAR=1995
DGENRE=Country
TTITLE0=Rhinestone Cowboy
TTITLE1=Gentle On My Mind
TTITLE2=Medley: Wichita Lineman
TTITLE3=Galveston
TTITLE4=Country Boy
TTITLE5=By The Time I Get To Phoenix
TTITLE6=Dreams Of The Everyday Housewife
TTITLE7=Heartache Number Three
TTITLE8=Please Come To Boston
TTITLE9=It's Only Make Believe
TTITLE10=Crying
TTITLE11=Bluegrass Medley: Rocky Top/Orange Blossom Special
TTITLE12=Milk Cow Blues
TTITLE13=Rollin' (In My Sweet Baby's Arms)
TTITLE14=I'm So Lonesome I Could Cry
TTITLE15=Southern Nights
TTITLE16=Amazing Grace
TTITLE17=Try A Little Kindness
TTITLE18=Mull Of Kintyre
EXTD=
EXTT0=
EXTT1=
EXTT2=
EXTT3=
EXTT4=
EXTT5=
EXTT6=
EXTT7=
EXTT8=
EXTT9=
EXTT10=
EXTT11=
EXTT12=
EXTT13=
EXTT14=
EXTT15=
EXTT16=
EXTT17=
EXTT18=
PLAYORDER=
